<svg version="1.1" id="Layer_1" xmlns="http://www.w3.org/2000/svg" xmlns:xlink="http://www.w3.org/1999/xlink" x="0px" y="0px"
	 viewBox="0 0 700 370" style="enable-background:new 0 0 700 370;" xml:space="preserve">
<defs>
		<style type="text/css">
			<!-- .st0{fill:none;stroke:#ffc0cb;stroke-miterlimit:10;} -->
			
			#y{fill:none;stroke:#ffa0b4;stroke-miterlimit:10;}
			#d{fill:none;stroke:#94c7f9;stroke-miterlimit:10;}

			.st0{
				stroke-dasharray: 3000;
				stroke-dashoffset: 0;
				-webkit-animation: dash 4s linear forwards;
				-o-animation: dash 4s linear forwards;
				-moz-animation: dash 4s linear forwards;
				animation: dash 4s linear forwards;
			}


			@-webkit-keyframes dash{
				from {
					stroke-dashoffset: 3000;
				}

				to {
					stroke-dashoffset: 0;
				}
			}

			#yd {
				width: 900px;
				height: 900px;
			}
		</style>
	</defs>

<g>
	<path id="d" class="st0" d="M446,350.5c0-68.7,0-134.9,0-201.1c1.5-0.2,6.4,10,6.4,15.3c0.2,56,0.6,112-0.2,168
		c-0.2,14.4,4.2,19,18.5,18.1c24.8-1.5,50.1,1.4,74.5-2.4c63.1-9.7,104.9-51.4,119.5-115c15.1-65.9-11.2-134.9-64.7-168.9
		c-25.7-16.3-54.4-22.3-84.4-22.5c-35.2-0.3-70.3-0.1-109.2-0.1c4.3-3.6,5.6-5.6,6.9-5.6c43,0.4,86.3-2.5,128.8,2.4
		c69.2,8,115.1,52.1,128.7,120.3c13.1,65.8-2.6,123.6-56.3,167.3c-25.8,21-56.6,29.9-89.6,30.4c-34.7,0.5-69.5,0.1-104.2,0.3
		c-8.1,0.1-12.3-2.1-12.3-11.3c0.3-88.1,1.1-266.3,1.9-268.6c3.9-0.3,78.1-1.4,110.8-0.9c58.1,0.7,112,57.3,110.2,115.4
		c0,1.3-1.1,2.6-3.4,8.1c-2.1-7.2-3.7-10.9-4.2-14.8c-9.2-65-51.9-102.3-117.4-102.3c-26.4,0-52.9,0.3-79.3-0.1
		c-9.5-0.2-12.5,3.2-12.5,12.6c0.3,80.9,0.3,161.7,0,242.6c0,9.1,2.4,13.8,12.2,12.9C432.2,350.1,437.8,350.5,446,350.5z"/>
	<g id="y">
		<path class="st0" d="M254.2,354.7c-0.4-5.2-1.1-10.4-1.1-15.6c-0.1-34.2,0.3-68.4-0.3-102.6c-0.1-6.8-2.2-14.4-5.8-20.2
			C216,166,184.8,115.9,153.2,66.1c-29.1-46-69.6-58.5-120.3-38c-1.8,0.7-3.7,1-7.5-1.3c2.5-2.1,4.8-4.8,7.7-6.3
			c38.1-20.1,91.6-8.8,115.6,27.3c37,55.6,71.8,112.7,107.3,169.3c2.3,3.7,3.6,8.7,3.6,13.1c0.2,38.9,0.1,77.7-0.1,116.6
			c0,2.7-1.1,5.3-1.7,8C256.5,354.7,255.4,354.7,254.2,354.7z"/>
		<path class="st0" d="M282.4,175.5c30.5-48.5,59.5-94.6,88.5-140.7c1.8,1.1,3.6,2.3,5.5,3.4c-31,49.6-62.1,99.2-94.3,150.9
			c-31.3-51.3-61.6-100.9-91.9-150.5c1.8-1.2,3.7-2.4,5.5-3.5C225.2,80.4,252.1,127.6,282.4,175.5z"/>
		<path class="st0" d="M298.3,241.6c0,38.2,0,75.5,0,114.8C290.6,343.6,291,251.4,298.3,241.6z"/>
	</g>
</g>
</svg>
